<svg width="600" height="597" viewBox="0 0 600 597" fill="none" xmlns="http://www.w3.org/2000/svg">
<path d="M432.45 271.294C336.217 168.626 327.007 146.428 290.935 146.428C254.862 146.428 243.763 235.222 268.736 257.42C293.71 279.618 290.935 335.115 246.538 362.863C202.141 390.611 152.195 299.042 127.221 348.989C103.255 396.921 141.095 565.423 302.034 562.649C462.973 559.874 528.683 373.962 432.45 271.294Z" fill="#F15152"/>
<path d="M255.682 86.0377C255.682 90.2208 252.73 93.8066 248.66 94.7722C218.555 101.914 190.827 115.197 166.873 133.226C163.276 135.933 158.214 135.683 155.031 132.5L104.232 81.702C100.687 78.1569 100.81 72.3603 104.613 69.0934C144.046 35.219 192.379 11.4135 245.624 1.66482C250.907 0.697602 255.682 4.82314 255.682 10.1937V86.0377Z" fill="white"/>
<path d="M439.652 128.613C436.538 131.727 431.613 132.042 428.021 129.496C408.854 115.906 387.432 105.286 364.428 98.3063C360.625 97.1526 357.955 93.6899 357.955 89.716V13.0264C357.955 7.49079 363.01 3.32497 368.401 4.58214C413.855 15.1821 455.339 36.1156 490.241 64.7714C494.174 68.0005 494.363 73.9018 490.765 77.5L439.652 128.613Z" fill="white"/>
<path d="M526.526 276.295C522.187 276.295 518.515 273.126 517.707 268.862C513.314 245.69 505.313 223.795 494.311 203.783C492.378 200.266 492.918 195.876 495.756 193.039L545.384 143.411C549.36 139.434 556.001 140.157 558.849 145.006C580.247 181.429 594.177 222.768 598.536 266.919C599.036 271.985 594.996 276.295 589.906 276.295H526.526Z" fill="white"/>
<path d="M530.386 446.749C525.529 446.749 521.591 442.811 521.591 437.954V370.317C521.591 365.46 525.529 361.522 530.386 361.522H591.204C596.062 361.522 600 365.46 600 370.317V437.954C600 442.811 596.062 446.749 591.204 446.749H530.386Z" fill="white"/>
<path d="M69.6136 361.522C74.4712 361.522 78.4091 365.46 78.4091 370.317V437.954C78.4091 442.811 74.4712 446.749 69.6136 446.749H8.79545C3.93786 446.749 0 442.811 0 437.954V370.317C0 365.46 3.93785 361.522 8.79544 361.522H69.6136Z" fill="white"/>
<path d="M101.051 199.05C103.819 201.818 104.408 206.073 102.625 209.556C93.1942 227.981 86.2672 247.899 82.2931 268.862C81.4849 273.126 77.813 276.295 73.4737 276.295H10.094C5.00383 276.295 0.964433 271.985 1.46447 266.919C5.58437 225.183 18.2575 185.96 37.7069 151.027C40.4816 146.043 47.2317 145.231 51.265 149.264L101.051 199.05Z" fill="white"/>
<path d="M8.7955 596.749C3.93791 596.749 4.88561e-05 592.811 4.4955e-05 587.954L7.06358e-06 540.772C3.16247e-06 535.914 3.93787 531.977 8.79546 531.977H591.204C596.062 531.977 600 535.914 600 540.772L600 587.954C600 592.811 596.062 596.749 591.205 596.749H8.7955Z" fill="white"/>
</svg>
